<svg xmlns="http://www.w3.org/2000/svg" viewBox="0 0 512 512">
  <circle cx="256" cy="256" r="256" fill="#04a3b3"/>
  <path d="M218 152c0 0-30-3-60 35-20 25-40 75-10 105 0 0 30-50 70-50 0 0-56 20-56 65 0 0 28-35 66-25 0 0-20-25 10-60 0 0 13 45 50 40 0 0-7-35 20-60 0 0-40 15-40 55 0 0-30-60 10-85 40-25 30-60 30-60s-35 0-50 20" fill="#000"/>
  <circle cx="315" cy="170" r="10" fill="#ff9800"/>
  <path d="M255 215c-44.183 0-80 35.817-80 80s35.817 80 80 80 80-35.817 80-80-35.817-80-80-80" fill="#4caf50"/>
  <path d="M280 350c-10 15-35 10-35 10 0-25 35-30 35-90 0 0 38 45 0 80" fill="#000"/>
</svg>
